<svg id="Layer_1" data-name="Layer 1" xmlns="http://www.w3.org/2000/svg" xmlns:xlink="http://www.w3.org/1999/xlink" width="103" height="100.1" viewBox="0 0 103 100.1"><defs><clipPath id="clip-path"><rect x="3" y="3" width="96.9" height="93.48" fill="none"/></clipPath></defs><title>Artboard 1</title><g clip-path="url(#clip-path)"><g id="Group_1" data-name="Group 1"><path id="Path_1" data-name="Path 1" d="M21.2,92.7c3,3.8,11.2,4.5,16.9,3.1s6.2-4.6,11.5-5.2c7.3-1,9.8,5,18.8,5.2,1.6,0,8.5.1,11.3-3.3,7.3-9-9.4-49.8-30.1-49.4S13.5,83.3,21.2,92.7" fill="#0abdc9"/></g><g id="Group_2" data-name="Group 2"><path id="Path_2" data-name="Path 2" d="M27.7,21c-1.2-9.1,2.4-17.1,8.1-17.9S47.3,8.9,48.5,18s-2.3,17.1-8.1,17.9S29,30.1,27.7,21" fill="#0abdc9"/></g><g id="Group_3" data-name="Group 3"><path id="Path_3" data-name="Path 3" d="M57.6,17.8c2.8-8.7,9.5-14.3,15-12.4s7.8,10.4,5,19.1-9.5,14.3-15,12.4-7.8-10.4-5-19.1" fill="#0abdc9"/></g><g id="Group_4" data-name="Group 4"><path id="Path_4" data-name="Path 4" d="M78.6,39.4c3.9-8.3,11.3-12.9,16.5-10.3s6.4,11.4,2.5,19.6S86.3,61.6,81.1,59s-6.4-11.4-2.5-19.6" fill="#0abdc9"/></g><g id="Group_5" data-name="Group 5"><path id="Path_5" data-name="Path 5" d="M5,44.1C1.4,35.7,2.8,27,8.2,24.6s12.5,2.6,16.1,11S26.4,52.8,21,55.1,8.5,52.6,5,44.1" fill="#0abdc9"/></g></g></svg>