<svg height="100.1" viewBox="0 0 103 100.1" width="103" xmlns="http://www.w3.org/2000/svg" xmlns:xlink="http://www.w3.org/1999/xlink"><clipPath id="a"><path d="m3 3h96.9v93.48h-96.9z"/></clipPath><g clip-path="url(#a)" fill="#0abdc9"><path d="m21.2 92.7c3 3.8 11.2 4.5 16.9 3.1s6.2-4.6 11.5-5.2c7.3-1 9.8 5 18.8 5.2 1.6 0 8.5.1 11.3-3.3 7.3-9-9.4-49.8-30.1-49.4s-36.1 40.2-28.4 49.6"/><path d="m27.7 21c-1.2-9.1 2.4-17.1 8.1-17.9s11.5 5.8 12.7 14.9-2.3 17.1-8.1 17.9-11.4-5.8-12.7-14.9"/><path d="m57.6 17.8c2.8-8.7 9.5-14.3 15-12.4s7.8 10.4 5 19.1-9.5 14.3-15 12.4-7.8-10.4-5-19.1"/><path d="m78.6 39.4c3.9-8.3 11.3-12.9 16.5-10.3s6.4 11.4 2.5 19.6-11.3 12.9-16.5 10.3-6.4-11.4-2.5-19.6"/><path d="m5 44.1c-3.6-8.4-2.2-17.1 3.2-19.5s12.5 2.6 16.1 11 2.1 17.2-3.3 19.5-12.5-2.5-16-11"/></g></svg>